<svg width="100" height="89" viewBox="0 0 100 89" fill="none" xmlns="http://www.w3.org/2000/svg">
<path d="M0.585 85.36H1.8L3.045 82.585H8.76L9.99 85.36H11.265L6.48 74.785H5.37L0.585 85.36ZM3.51 81.52L5.91 76.165L8.295 81.52H3.51ZM13.3356 85.36H16.9806C20.2806 85.36 22.5606 83.065 22.5606 80.11V80.08C22.5606 77.125 20.2806 74.86 16.9806 74.86H13.3356V85.36ZM14.5206 84.265V75.955H16.9806C19.6356 75.955 21.3306 77.785 21.3306 80.11V80.14C21.3306 82.465 19.6356 84.265 16.9806 84.265H14.5206ZM25.069 85.36H28.714C32.014 85.36 34.294 83.065 34.294 80.11V80.08C34.294 77.125 32.014 74.86 28.714 74.86H25.069V85.36ZM26.254 84.265V75.955H28.714C31.369 75.955 33.064 77.785 33.064 80.11V80.14C33.064 82.465 31.369 84.265 28.714 84.265H26.254ZM44.0745 85.36H45.2745V75.955H48.7995V74.86H40.5495V75.955H44.0745V85.36ZM55.901 85.54C59.096 85.54 61.271 83.005 61.271 80.11C61.286 80.095 61.286 80.095 61.271 80.08C61.271 77.185 59.126 74.68 55.931 74.68C52.736 74.68 50.561 77.215 50.561 80.11V80.14C50.561 83.035 52.706 85.54 55.901 85.54ZM55.931 84.445C53.531 84.445 51.791 82.495 51.791 80.11V80.08C51.791 77.695 53.501 75.775 55.901 75.775C58.301 75.775 60.041 77.725 60.041 80.11V80.14C60.041 82.525 58.331 84.445 55.931 84.445ZM68.2672 85.36H75.3622V84.265H69.4522V74.86H68.2672V85.36ZM77.6593 85.36H78.8443V74.86H77.6593V85.36ZM85.5196 85.51C87.6046 85.51 89.1046 84.34 89.1046 82.54V82.51C89.1046 80.905 88.0246 80.05 85.6846 79.54C83.3746 79.045 82.8346 78.49 82.8346 77.5V77.47C82.8346 76.525 83.7046 75.775 85.0696 75.775C86.1496 75.775 87.1246 76.12 88.0996 76.915L88.7896 76C87.7246 75.145 86.6296 74.71 85.0996 74.71C83.1046 74.71 81.6496 75.925 81.6496 77.575V77.605C81.6496 79.33 82.7596 80.11 85.1746 80.635C87.3796 81.1 87.9046 81.655 87.9046 82.63V82.66C87.9046 83.695 86.9746 84.445 85.5646 84.445C84.1096 84.445 83.0596 83.95 81.9646 82.96L81.2296 83.83C82.4896 84.955 83.8546 85.51 85.5196 85.51ZM94.2893 85.36H95.4893V75.955H99.0143V74.86H90.7643V75.955H94.2893V85.36Z" fill="black"/>
<path d="M74.7449 26.12C74.7449 11.6943 63.0506 0 48.6249 0C34.1992 0 22.5049 11.6943 22.5049 26.12V29.267C22.5049 43.6927 34.1992 55.387 48.6249 55.387C63.0506 55.387 74.7449 43.6927 74.7449 29.267V26.12Z" fill="white"/>
<path d="M73.7449 26.12C73.7449 12.2466 62.4983 1 48.6249 1C34.7515 1 23.5049 12.2466 23.5049 26.12V29.267C23.5049 43.1404 34.7515 54.387 48.6249 54.387C62.4983 54.387 73.7449 43.1404 73.7449 29.267V26.12Z" stroke="white" stroke-width="2"/>
<path d="M57.471 25.482H50.836V18.847C50.8357 18.4562 50.6803 18.0814 50.4039 17.8051C50.1276 17.5287 49.7528 17.3733 49.362 17.373H47.887C47.4961 17.3733 47.1213 17.5287 46.845 17.8051C46.5686 18.0814 46.4132 18.4562 46.413 18.847V25.482H39.778C39.3871 25.4823 39.0123 25.6377 38.736 25.9141C38.4596 26.1904 38.3042 26.5652 38.304 26.956V28.43C38.3042 28.8209 38.4596 29.1957 38.736 29.472C39.0123 29.7484 39.3871 29.9038 39.778 29.904H46.413V36.539C46.4132 36.9299 46.5686 37.3047 46.845 37.581C47.1213 37.8574 47.4961 38.0128 47.887 38.013H49.361C49.7518 38.0128 50.1266 37.8574 50.4029 37.581C50.6793 37.3047 50.8347 36.9299 50.835 36.539V29.905H57.47C57.8608 29.9048 58.2356 29.7494 58.5119 29.473C58.7883 29.1967 58.9437 28.8219 58.944 28.431V26.956C58.9437 26.5654 58.7884 26.1908 58.5123 25.9144C58.2361 25.6381 57.8616 25.4826 57.471 25.482Z" fill="black"/>
</svg>
