<svg width="12" height="20" viewBox="0 0 12 20" fill="none" xmlns="http://www.w3.org/2000/svg">
<path d="M3.61702 10.0025L11.5586 17.5645C11.6982 17.6967 11.809 17.8539 11.8847 18.0271C11.9603 18.2003 11.9992 18.386 11.9992 18.5735C11.9992 18.7611 11.9603 18.9468 11.8847 19.12C11.809 19.2932 11.6982 19.4504 11.5586 19.5826C11.2751 19.8479 10.8937 19.9965 10.4964 19.9965C10.0991 19.9965 9.71773 19.8479 9.43423 19.5826L0.436339 11.0155C0.164257 10.7554 0.00787308 10.4053 -0.000284636 10.0381C-0.00844235 9.67091 0.132254 9.31484 0.392539 9.04396L9.4275 0.41588C9.56327 0.271612 9.72842 0.155172 9.9129 0.0736431C10.0974 -0.00788617 10.2973 -0.0528014 10.5006 -0.05837C10.7039 -0.0639385 10.9062 -0.0300443 11.0953 0.041251C11.2844 0.112546 11.4563 0.219752 11.6005 0.356349C11.7448 0.492946 11.8583 0.65608 11.9344 0.835826C12.0104 1.01557 12.0472 1.20818 12.0427 1.40192C12.0381 1.59567 11.9923 1.78651 11.9079 1.96284C11.8235 2.13916 11.7024 2.29729 11.5519 2.4276L3.61702 10.0025Z" fill="white"/>
</svg>
