<svg width="53" height="89" viewBox="0 0 53 89" fill="none" xmlns="http://www.w3.org/2000/svg">
<path d="M6.06313 85.36H10.7281C13.0231 85.36 14.5381 84.295 14.5381 82.495V82.465C14.5381 81.025 13.5331 80.305 12.2881 79.93C13.1131 79.57 13.9531 78.865 13.9531 77.5V77.47C13.9531 76.795 13.7131 76.24 13.2781 75.79C12.6781 75.205 11.7331 74.86 10.5331 74.86H6.06313V85.36ZM7.23313 79.54V75.925H10.4281C11.9281 75.925 12.7531 76.6 12.7531 77.635V77.665C12.7531 78.895 11.7631 79.54 10.3381 79.54H7.23313ZM7.23313 84.295V80.59H10.5481C12.3781 80.59 13.3381 81.25 13.3381 82.39V82.42C13.3381 83.59 12.3481 84.295 10.7581 84.295H7.23313ZM15.9883 85.36H17.2033L18.4483 82.585H24.1633L25.3933 85.36H26.6683L21.8833 74.785H20.7733L15.9883 85.36ZM18.9133 81.52L21.3133 76.165L23.6983 81.52H18.9133ZM33.5389 85.54C35.4439 85.54 36.6439 84.805 37.7389 83.695L36.9589 82.93C35.9539 83.89 35.0089 84.445 33.5689 84.445C31.2589 84.445 29.5039 82.54 29.5039 80.11V80.08C29.5039 77.665 31.2439 75.775 33.5689 75.775C34.9939 75.775 35.9839 76.375 36.8689 77.215L37.6789 76.345C36.6289 75.355 35.4889 74.68 33.5839 74.68C30.4939 74.68 28.2739 77.14 28.2739 80.11V80.14C28.2739 83.155 30.5089 85.54 33.5389 85.54ZM39.8131 85.36H40.9981V82.54L43.2331 80.275L47.2681 85.36H48.7531L44.0581 79.45L48.5581 74.86H47.0281L40.9981 81.13V74.86H39.8131V85.36Z" fill="black"/>
<path d="M51.24 26.12C51.24 12.2466 39.9934 1 26.12 1C12.2466 1 1 12.2466 1 26.12V29.267C1 43.1404 12.2466 54.387 26.12 54.387C39.9934 54.387 51.24 43.1404 51.24 29.267V26.12Z" stroke="black" stroke-width="2"/>
<path d="M35.2351 27.694L19.0051 27.694" stroke="black" stroke-width="3" stroke-linecap="round" stroke-linejoin="round"/>
<path d="M27.1201 35.809L19.0051 27.694L27.1201 19.579" stroke="black" stroke-width="3" stroke-linecap="round" stroke-linejoin="round"/>
</svg>
