<svg width="31" height="35" viewBox="0 0 31 35" fill="none" xmlns="http://www.w3.org/2000/svg">
<path d="M29.6767 25.452L29.6763 25.4516C29.5991 25.3697 29.5154 25.283 29.4264 25.1907C28.7812 24.522 27.8555 23.5626 27.0892 22.0297C26.2139 20.2788 25.5659 17.8374 25.5659 14.2188C25.5659 9.41605 22.1641 5.54642 17.5119 4.59169L16.7129 4.42773V3.61211V2.1875C16.7129 1.5427 16.1806 1 15.5 1C14.8194 1 14.2871 1.5427 14.2871 2.1875V3.61211V4.42773L13.4881 4.59169C8.83592 5.54642 5.43414 9.41605 5.43414 14.2188C5.43414 17.8374 4.78608 20.2788 3.91077 22.0297C3.1445 23.5626 2.21881 24.522 1.57358 25.1907C1.48457 25.283 1.4009 25.3697 1.32372 25.4516C1.08926 25.7007 0.998265 25.9779 1.00002 26.2432C1.00003 26.2432 1.00003 26.2433 1.00003 26.2433M29.6767 25.452L31 26.25C30.993 27.3711 30.1018 28.4375 28.7788 28.4375H2.22125C0.898215 28.4375 0.00765943 27.3711 4.78414e-05 26.25L1.00003 26.2433M29.6767 25.452C29.9104 25.6999 30.0018 25.9775 30 26.2433L30 26.2438C29.9962 26.8632 29.505 27.4375 28.7788 27.4375H2.22125C1.49559 27.4375 1.00428 26.8637 1.00003 26.2433M29.6767 25.452L1.00003 26.2433M18.7732 31.625C18.3415 32.9955 17.046 34 15.5 34C13.954 34 12.6585 32.9955 12.2268 31.625H18.7732Z" stroke="#C6C6C6" stroke-width="2"/>
</svg>
