<svg width="38" height="42" viewBox="0 0 38 42" fill="none" xmlns="http://www.w3.org/2000/svg">
<path d="M5.00992 3.99681H32.9901C34.3183 3.99842 35.5917 4.5268 36.5308 5.46604C37.47 6.40529 37.9984 7.67872 38 9.00702V36.9888C37.9984 38.3171 37.47 39.5905 36.5308 40.5298C35.5917 41.469 34.3183 41.9974 32.9901 41.999H5.00992C3.6817 41.9974 2.40834 41.469 1.46915 40.5298C0.529955 39.5905 0.00160899 38.3171 0 36.9888V9.00702C0.00160899 7.67872 0.529955 6.40529 1.46915 5.46604C2.40834 4.5268 3.6817 3.99842 5.00992 3.99681ZM32.9901 39.9722C33.781 39.9711 34.5391 39.6565 35.0984 39.0972C35.6576 38.5379 35.9723 37.7797 35.9733 36.9888V9.00702C35.9723 8.21609 35.6576 7.45787 35.0984 6.8986C34.5391 6.33933 33.781 6.02467 32.9901 6.02359H5.00992C4.21904 6.02467 3.46086 6.33933 2.90163 6.8986C2.34239 7.45787 2.02774 8.21609 2.02667 9.00702V36.9888C2.02774 37.7797 2.34239 38.5379 2.90163 39.0972C3.46086 39.6565 4.21904 39.9711 5.00992 39.9722H32.9901Z" fill="#C6C6C6"/>
<path d="M26.9942 10.0214C26.7254 10.0214 26.4677 9.91466 26.2776 9.72461C26.0876 9.53456 25.9809 9.2768 25.9809 9.00803V1.01339C25.9809 0.744623 26.0876 0.486863 26.2776 0.296815C26.4677 0.106768 26.7254 0 26.9942 0C27.2629 0 27.5207 0.106768 27.7107 0.296815C27.9008 0.486863 28.0075 0.744623 28.0075 1.01339V9.00803C28.0075 9.2768 27.9008 9.53456 27.7107 9.72461C27.5207 9.91466 27.2629 10.0214 26.9942 10.0214Z" fill="#C6C6C6"/>
<path d="M11.0058 10.0214C10.7371 10.0214 10.4793 9.91466 10.2893 9.72461C10.0992 9.53456 9.99248 9.2768 9.99248 9.00803V1.01339C9.99248 0.744623 10.0992 0.486863 10.2893 0.296815C10.4793 0.106768 10.7371 0 11.0058 0C11.2746 0 11.5323 0.106768 11.7223 0.296815C11.9124 0.486863 12.0191 0.744623 12.0191 1.01339V9.00803C12.0191 9.2768 11.9124 9.53456 11.7223 9.72461C11.5323 9.91466 11.2746 10.0214 11.0058 10.0214Z" fill="#C6C6C6"/>
<path d="M36.9867 18.0161H1.01333C0.744581 18.0161 0.486835 17.9093 0.296798 17.7193C0.106762 17.5292 0 17.2715 0 17.0027C0 16.7339 0.106762 16.4762 0.296798 16.2861C0.486835 16.0961 0.744581 15.9893 1.01333 15.9893H36.9867C37.2554 15.9893 37.5132 16.0961 37.7032 16.2861C37.8932 16.4762 38 16.7339 38 17.0027C38 17.2715 37.8932 17.5292 37.7032 17.7193C37.5132 17.9093 37.2554 18.0161 36.9867 18.0161Z" fill="#C6C6C6"/>
<path d="M19.8786 35.1434H17.8519V22.6716H19.8786V35.1434Z" fill="#C6C6C6"/>
<path d="M25.3708 29.9204H12.6302V27.8936H25.3708V29.9204Z" fill="#C6C6C6"/>
</svg>
