<svg width="14" height="14" viewBox="0 0 14 14" fill="none" xmlns="http://www.w3.org/2000/svg">
<path d="M12.5 6.75C12.5 7.88724 12.1628 8.99895 11.531 9.94453C10.8991 10.8901 10.0011 11.6271 8.95043 12.0623C7.89976 12.4975 6.74362 12.6114 5.62823 12.3895C4.51284 12.1676 3.48829 11.62 2.68414 10.8159C1.87999 10.0117 1.33235 8.98716 1.11049 7.87177C0.888622 6.75638 1.00249 5.60025 1.4377 4.54957C1.8729 3.49889 2.60989 2.60087 3.55547 1.96905C4.50106 1.33723 5.61276 1 6.75 1C7.5051 1 8.25281 1.14873 8.95043 1.43769C9.64805 1.72666 10.2819 2.1502 10.8159 2.68414C11.3498 3.21807 11.7733 3.85195 12.0623 4.54957C12.3513 5.24719 12.5 5.9949 12.5 6.75V6.75Z" stroke="#919191" stroke-width="2" stroke-linecap="round" stroke-linejoin="round"/>
<path d="M6.75 3.29999V6.74999L9.05 7.89999" stroke="#919191" stroke-width="2" stroke-linecap="round" stroke-linejoin="round"/>
</svg>
