<svg width="95" height="67" viewBox="0 0 95 67" fill="none" xmlns="http://www.w3.org/2000/svg">
<path d="M44.125 16.75C44.125 25.4622 37.1289 32.5 28.5 32.5C19.8711 32.5 12.875 25.4622 12.875 16.75C12.875 8.03784 19.8711 1 28.5 1C37.1289 1 44.125 8.03784 44.125 16.75ZM28.5 41.6786C32.2358 41.6786 35.7406 40.78 38.8951 39.2857H39.9C48.7813 39.2857 56 46.5479 56 55.5143V59.8214C56 63.2394 53.2493 66 49.875 66H7.125C3.75074 66 1 63.2394 1 59.8214V55.5143C1 46.5479 8.21871 39.2857 17.1 39.2857H18.1058C21.2721 40.7793 24.7627 41.6786 28.5 41.6786ZM84.5 19.1429C84.5 26.524 78.5579 32.5 71.25 32.5C63.9421 32.5 58 26.524 58 19.1429C58 11.7617 63.9421 5.78571 71.25 5.78571C78.5579 5.78571 84.5 11.7617 84.5 19.1429ZM71.25 40.4821C73.6436 40.4821 75.8852 39.9996 77.9783 39.2857H78.375C87.0039 39.2857 94 46.3236 94 55.0357C94 58.4537 91.2493 61.2143 87.875 61.2143H62.75V55.5143C62.75 49.9352 60.7222 44.8549 57.436 40.878C59.478 39.8778 61.7263 39.2857 64.125 39.2857H64.5217C66.6148 39.9996 68.8564 40.4821 71.25 40.4821Z" stroke="#36FBD7" stroke-width="2"/>
</svg>
