<svg width="13" height="14" viewBox="0 0 13 14" fill="none" xmlns="http://www.w3.org/2000/svg">
<path d="M2.45024 2.14197H10.5498C10.9342 2.14243 11.3028 2.2934 11.5747 2.56176C11.8466 2.83012 11.9995 3.19397 12 3.57349V11.5685C11.9995 11.948 11.8466 12.3118 11.5747 12.5802C11.3028 12.8486 10.9342 12.9995 10.5498 13H2.45024C2.06576 12.9995 1.69715 12.8486 1.42528 12.5802C1.15341 12.3118 1.00047 11.948 1 11.5685V3.57349C1.00047 3.19397 1.15341 2.83012 1.42528 2.56176C1.69715 2.2934 2.06576 2.14243 2.45024 2.14197ZM10.5498 12.4209C10.7787 12.4206 10.9982 12.3307 11.1601 12.1709C11.3219 12.0111 11.413 11.7945 11.4133 11.5685V3.57349C11.413 3.34751 11.3219 3.13087 11.1601 2.97107C10.9982 2.81128 10.7787 2.72137 10.5498 2.72106H2.45024C2.2213 2.72137 2.00183 2.81128 1.83994 2.97107C1.67806 3.13087 1.58698 3.34751 1.58667 3.57349V11.5685C1.58698 11.7945 1.67806 12.0111 1.83994 12.1709C2.00183 12.3307 2.2213 12.4206 2.45024 12.4209H10.5498Z" fill="#C6C6C6" stroke="#C6C6C6"/>
<path d="M8.19236 5.0001C8.08016 5.0001 7.97255 4.95748 7.8932 4.88162C7.81386 4.80576 7.76929 4.70288 7.76929 4.5956V1.4045C7.76929 1.29722 7.81386 1.19433 7.8932 1.11848C7.97255 1.04262 8.08016 1 8.19236 1C8.30457 1 8.41218 1.04262 8.49152 1.11848C8.57087 1.19433 8.61544 1.29722 8.61544 1.4045V4.5956C8.61544 4.70288 8.57087 4.80576 8.49152 4.88162C8.41218 4.95748 8.30457 5.0001 8.19236 5.0001Z" fill="#C6C6C6" stroke="#C6C6C6"/>
<path d="M4.8076 5.0001C4.69539 5.0001 4.58778 4.95748 4.50844 4.88162C4.4291 4.80576 4.38452 4.70288 4.38452 4.5956V1.4045C4.38452 1.29722 4.4291 1.19433 4.50844 1.11848C4.58778 1.04262 4.69539 1 4.8076 1C4.91981 1 5.02742 1.04262 5.10676 1.11848C5.1861 1.19433 5.23068 1.29722 5.23068 1.4045V4.5956C5.23068 4.70288 5.1861 4.80576 5.10676 4.88162C5.02742 4.95748 4.91981 5.0001 4.8076 5.0001Z" fill="#C6C6C6" stroke="#C6C6C6"/>
</svg>
