<svg width="20" height="15" viewBox="0 0 20 15" fill="none" xmlns="http://www.w3.org/2000/svg">
<path d="M4.02875 14.568H5.42075V12.984C7.45275 12.808 8.82875 11.64 8.82875 9.896V9.864C8.82875 8.152 7.78875 7.176 5.35675 6.568V3.528C6.10875 3.688 6.82875 4.024 7.53275 4.552L8.42875 3.048C7.54875 2.392 6.58875 1.976 5.42075 1.832V0.872H4.02875V1.8C2.02875 1.96 0.66875 3.128 0.66875 4.856V4.888C0.66875 6.68 1.75675 7.56 4.09275 8.168V11.304C3.05275 11.144 2.18875 10.664 1.27675 9.928L0.25275 11.384C1.34075 12.248 2.63675 12.808 4.02875 12.968V14.568ZM4.09275 6.232C2.86075 5.864 2.55675 5.432 2.55675 4.776V4.744C2.55675 4.04 3.08475 3.496 4.09275 3.416V6.232ZM5.35675 11.368V8.472C6.60475 8.84 6.94075 9.272 6.94075 9.976V10.008C6.94075 10.776 6.36475 11.288 5.35675 11.368ZM14.2944 14.568H15.6864V12.984C17.7184 12.808 19.0944 11.64 19.0944 9.896V9.864C19.0944 8.152 18.0544 7.176 15.6224 6.568V3.528C16.3744 3.688 17.0944 4.024 17.7984 4.552L18.6944 3.048C17.8144 2.392 16.8544 1.976 15.6864 1.832V0.872H14.2944V1.8C12.2944 1.96 10.9344 3.128 10.9344 4.856V4.888C10.9344 6.68 12.0224 7.56 14.3584 8.168V11.304C13.3184 11.144 12.4544 10.664 11.5424 9.928L10.5184 11.384C11.6064 12.248 12.9024 12.808 14.2944 12.968V14.568ZM14.3584 6.232C13.1264 5.864 12.8224 5.432 12.8224 4.776V4.744C12.8224 4.04 13.3504 3.496 14.3584 3.416V6.232ZM15.6224 11.368V8.472C16.8704 8.84 17.2064 9.272 17.2064 9.976V10.008C17.2064 10.776 16.6304 11.288 15.6224 11.368Z" fill="#919191"/>
</svg>
