<svg width="14" height="8" viewBox="0 0 14 8" fill="none" xmlns="http://www.w3.org/2000/svg">
<path d="M7.23099 5.74001L11.941 1.02601C12.0233 0.943139 12.1213 0.877368 12.2291 0.832487C12.337 0.787605 12.4527 0.7645 12.5695 0.7645C12.6863 0.7645 12.802 0.787605 12.9099 0.832487C13.0177 0.877368 13.1156 0.943139 13.198 1.02601C13.3632 1.19429 13.4557 1.42069 13.4557 1.65651C13.4557 1.89233 13.3632 2.11873 13.198 2.28701L7.86199 7.62801C7.69996 7.78952 7.48192 7.88234 7.2532 7.88719C7.02448 7.89203 6.8027 7.80851 6.63399 7.65401L1.25999 2.29101C1.17013 2.21042 1.09761 2.11239 1.04683 2.00289C0.996045 1.89338 0.968069 1.77469 0.964601 1.65404C0.961133 1.53338 0.982244 1.41328 1.02665 1.30104C1.07106 1.1888 1.13783 1.08677 1.22291 1.00114C1.30799 0.915522 1.4096 0.848101 1.52155 0.802981C1.63351 0.757861 1.75347 0.735987 1.87414 0.738687C1.99482 0.741388 2.11368 0.768606 2.22351 0.818689C2.33333 0.868772 2.43182 0.940671 2.51299 1.03001L7.23099 5.74001Z" fill="#919191"/>
</svg>
