<svg width="22" height="22" viewBox="0 0 22 22" fill="none" xmlns="http://www.w3.org/2000/svg">
<path d="M11.0008 0C8.01165 0 7.63821 0.0142415 6.46565 0.0664605C5.55394 0.0856505 4.65199 0.258444 3.79774 0.577573C3.06343 0.852447 2.39806 1.2845 1.84823 1.84349C1.28664 2.39396 0.852853 3.06111 0.577573 3.79774C0.258005 4.65187 0.0851968 5.55389 0.0664605 6.46565C0.0110767 7.63821 0 8.01165 0 11.0008C0 13.9899 0.0142415 14.3618 0.0664605 15.5343C0.0862723 16.4444 0.259054 17.3447 0.577573 18.1975C0.852858 18.9316 1.28486 19.5969 1.84349 20.147C2.39331 20.706 3.05868 21.1381 3.79299 21.4129C4.64779 21.7321 5.55026 21.9049 6.46249 21.924C7.63504 21.9794 8.00849 21.9905 10.9976 21.9905C13.9868 21.9905 14.3586 21.9763 15.5328 21.924C16.445 21.9045 17.3474 21.7317 18.2023 21.4129C18.9335 21.131 19.5977 20.6993 20.1522 20.1456C20.7068 19.5918 21.1394 18.9283 21.4224 18.1975C21.7416 17.3427 21.9144 16.4403 21.9335 15.528C21.9889 14.3555 22 13.982 22 10.9929C22 8.00374 21.9858 7.63188 21.9335 6.45774C21.913 5.54874 21.7403 4.64962 21.4224 3.79774C21.147 3.0637 20.715 2.39845 20.1565 1.84823C19.6048 1.28585 18.936 0.852004 18.1975 0.577573C17.3449 0.258617 16.4445 0.0858208 15.5343 0.0664605C14.3618 0.0110767 13.9883 0 11.0008 0ZM11.0008 1.97957C13.9361 1.97957 14.2874 1.99381 15.4473 2.04445C16.1445 2.05268 16.8351 2.18115 17.4886 2.42422C17.9639 2.60583 18.3955 2.88556 18.7554 3.24519C19.1153 3.60482 19.3954 4.03627 19.5774 4.5114C19.8196 5.16508 19.9476 5.85559 19.9555 6.55269C20.0078 7.71258 20.0204 8.06229 20.0204 10.9992C20.0204 13.9361 20.0062 14.2858 19.9524 15.4457C19.9396 16.1431 19.8091 16.8332 19.5663 17.487C19.3871 17.9641 19.1057 18.3962 18.7419 18.7529C18.386 19.1172 17.9536 19.3977 17.4759 19.5742C16.8195 19.8165 16.1264 19.9444 15.4267 19.9524C14.2589 20.0046 13.9156 20.0173 10.9723 20.0173C8.02906 20.0173 7.68568 20.003 6.51787 19.9492C5.81532 19.9373 5.11983 19.8068 4.46076 19.5631C3.98241 19.3865 3.54981 19.1048 3.19485 18.7387C2.82698 18.3852 2.54496 17.9522 2.37042 17.4728C2.12828 16.8161 1.99829 16.1234 1.9859 15.4236C1.94476 14.2684 1.93052 13.9124 1.93052 10.9834C1.93052 8.05438 1.94476 7.69676 1.9859 6.52737C1.99972 5.82898 2.13077 5.13788 2.37359 4.48292C2.54553 4.00224 2.82791 3.56863 3.19801 3.217C3.54962 2.84725 3.98327 2.56538 4.46393 2.39416C5.11571 2.14998 5.80454 2.01939 6.50047 2.00806C7.66986 1.96691 8.01323 1.95267 10.9549 1.95267L10.996 1.97957H11.0008ZM11.0008 5.35165C9.8835 5.35165 8.79129 5.68297 7.8623 6.3037C6.9333 6.92444 6.20924 7.80671 5.78167 8.83896C5.3541 9.8712 5.24222 11.0071 5.4602 12.1029C5.67817 13.1987 6.2162 14.2053 7.00625 14.9953C7.79629 15.7854 8.80287 16.3234 9.8987 16.5414C10.9945 16.7594 12.1304 16.6475 13.1626 16.2199C14.1949 15.7923 15.0771 15.0683 15.6979 14.1393C16.3186 13.2103 16.6499 12.1181 16.6499 11.0008C16.6501 10.2589 16.5042 9.52419 16.2203 8.83871C15.9365 8.15323 15.5204 7.53039 14.9958 7.00578C14.4712 6.48117 13.8483 6.06506 13.1629 5.78124C12.4774 5.49742 11.7427 5.35144 11.0008 5.35165ZM11.0008 14.6672C10.2756 14.6672 9.56678 14.4522 8.96385 14.0493C8.36091 13.6464 7.89098 13.0738 7.61348 12.4039C7.33598 11.7339 7.26337 10.9967 7.40484 10.2855C7.54631 9.5743 7.8955 8.92101 8.40825 8.40825C8.92101 7.8955 9.5743 7.54631 10.2855 7.40484C10.9967 7.26337 11.7339 7.33598 12.4039 7.61348C13.0738 7.89098 13.6464 8.36091 14.0493 8.96385C14.4522 9.56678 14.6672 10.2756 14.6672 11.0008C14.6672 11.9732 14.2809 12.9057 13.5933 13.5933C12.9057 14.2809 11.9732 14.6672 11.0008 14.6672ZM18.1975 5.12853C18.1975 5.38955 18.1201 5.6447 17.9751 5.86173C17.8301 6.07875 17.624 6.2479 17.3828 6.34779C17.1417 6.44768 16.8763 6.47381 16.6203 6.42289C16.3643 6.37197 16.1292 6.24628 15.9446 6.06171C15.7601 5.87715 15.6344 5.642 15.5834 5.386C15.5325 5.13 15.5587 4.86465 15.6585 4.6235C15.7584 4.38235 15.9276 4.17624 16.1446 4.03123C16.3616 3.88622 16.6168 3.80882 16.8778 3.80882C17.2277 3.80924 17.5631 3.94841 17.8105 4.19582C18.0579 4.44322 18.1971 4.77865 18.1975 5.12853Z" fill="white"/>
</svg>
