<svg width="31" height="27" viewBox="0 0 31 27" fill="none" xmlns="http://www.w3.org/2000/svg">
<path d="M17.4097 3.3634L17.4092 3.36387L16.2165 4.58728L15.5004 5.32171L14.7844 4.58728L13.5917 3.36387L13.5905 3.36269C10.8748 0.567907 6.52848 0.173313 3.65732 2.60826L17.4097 3.3634ZM17.4097 3.3634C20.1321 0.56733 24.4728 0.173647 27.3436 2.60826L17.4097 3.3634ZM27.8676 13.6783L27.8678 13.6781C30.8782 10.5858 30.6986 5.45884 27.3438 2.60843L27.8676 13.6783ZM27.8676 13.6783L16.1522 25.7194C16.1522 25.7194 16.1521 25.7195 16.152 25.7196C15.7879 26.0935 15.207 26.0935 14.8428 25.7196C14.8427 25.7195 14.8427 25.7194 14.8426 25.7194L3.12762 13.6787M27.8676 13.6783L3.12762 13.6787M3.12762 13.6787C0.122547 10.5864 0.302143 5.45888 3.65717 2.60839L3.12762 13.6787Z" fill="black" stroke="#C5C5C5" stroke-width="2"/>
</svg>
