<svg width="27" height="38" viewBox="0 0 27 38" fill="none" xmlns="http://www.w3.org/2000/svg">
<path d="M13.5 1C10.1848 1 7.00537 2.29064 4.66116 4.58801C2.31696 6.88537 1 10.0013 1 13.2502C1 22.4379 13.5 36 13.5 36C13.5 36 26 22.4379 26 13.2502C26 10.0013 24.683 6.88537 22.3388 4.58801C19.9946 2.29064 16.8152 1 13.5 1ZM13.5 17.275C12.6172 17.275 11.7542 17.0184 11.0201 16.5378C10.2861 16.0571 9.71398 15.3739 9.37614 14.5746C9.03829 13.7752 8.9499 12.8957 9.12213 12.0471C9.29436 11.1986 9.71948 10.4191 10.3437 9.80734C10.968 9.19556 11.7633 8.77893 12.6292 8.61014C13.495 8.44136 14.3925 8.52798 15.2082 8.85908C16.0238 9.19017 16.7209 9.75085 17.2114 10.4702C17.7018 11.1896 17.9636 12.0354 17.9636 12.9005C17.963 14.0605 17.4926 15.1728 16.6556 15.9931C15.8186 16.8133 14.6836 17.2744 13.5 17.275V17.275Z" stroke="#C6C6C6" stroke-width="2"/>
</svg>
