<svg width="13" height="19" viewBox="0 0 13 19" fill="none" xmlns="http://www.w3.org/2000/svg">
<path d="M6.5 1C5.04131 1 3.64236 1.57946 2.61091 2.61091C1.57946 3.64236 1 5.04131 1 6.5C1 10.625 6.5 16.714 6.5 16.714C6.5 16.714 12 10.625 12 6.5C12 5.04131 11.4205 3.64236 10.3891 2.61091C9.35764 1.57946 7.95869 1 6.5 1ZM6.5 8.307C6.11156 8.307 5.73184 8.19181 5.40886 7.97601C5.08588 7.7602 4.83415 7.45346 4.6855 7.09459C4.53685 6.73572 4.49796 6.34082 4.57374 5.95984C4.64952 5.57886 4.83657 5.22891 5.11124 4.95424C5.38591 4.67957 5.73586 4.49252 6.11684 4.41674C6.49782 4.34096 6.89272 4.37985 7.25159 4.5285C7.61046 4.67715 7.9172 4.92888 8.13301 5.25186C8.34881 5.57484 8.464 5.95456 8.464 6.343C8.46373 6.8638 8.25673 7.3632 7.88846 7.73147C7.5202 8.09973 7.0208 8.30674 6.5 8.307V8.307Z" stroke="#919191" stroke-width="2"/>
</svg>
