<svg width="53" height="89" viewBox="0 0 53 89" fill="none" xmlns="http://www.w3.org/2000/svg">
<path d="M2.485 85.36H9.58V84.265H3.67V74.86H2.485V85.36ZM16.6471 85.54C19.8421 85.54 22.0171 83.005 22.0171 80.11C22.0321 80.095 22.0321 80.095 22.0171 80.08C22.0171 77.185 19.8721 74.68 16.6771 74.68C13.4821 74.68 11.3071 77.215 11.3071 80.11V80.14C11.3071 83.035 13.4521 85.54 16.6471 85.54ZM16.6771 84.445C14.2771 84.445 12.5371 82.495 12.5371 80.11V80.08C12.5371 77.695 14.2471 75.775 16.6471 75.775C19.0471 75.775 20.7871 77.725 20.7871 80.11V80.14C20.7871 82.525 19.0771 84.445 16.6771 84.445ZM29.3913 85.54C31.1613 85.54 32.6313 84.805 33.6063 83.935V79.75H29.2713V80.815H32.4663V83.425C31.7463 84.01 30.6363 84.475 29.4363 84.475C26.8862 84.475 25.2813 82.615 25.2813 80.11V80.08C25.2813 77.74 26.9463 75.775 29.2713 75.775C30.7563 75.775 31.6563 76.27 32.4663 76.975L33.2313 76.075C32.1813 75.19 31.0863 74.68 29.3163 74.68C26.1663 74.68 24.0513 77.23 24.0513 80.11V80.14C24.0513 83.14 26.0913 85.54 29.3913 85.54ZM36.3839 85.36H37.5689V74.86H36.3839V85.36ZM40.6442 85.36H41.7992V76.75L48.5792 85.36H49.5242V74.86H48.3692V83.275L41.7542 74.86H40.6442V85.36Z" fill="white"/>
<path d="M51.24 26.12C51.24 12.2466 39.9934 1 26.12 1C12.2466 1 1 12.2466 1 26.12V29.267C1 43.1404 12.2466 54.387 26.12 54.387C39.9934 54.387 51.24 43.1404 51.24 29.267V26.12Z" stroke="white" stroke-width="2"/>
<path d="M25.9981 27.503C24.7547 27.503 23.5392 27.1364 22.5054 26.4495C21.4716 25.7625 20.6658 24.7862 20.19 23.6439C19.7141 22.5015 19.5896 21.2446 19.8322 20.0319C20.0748 18.8192 20.6735 17.7053 21.5527 16.831C22.4319 15.9567 23.5521 15.3613 24.7716 15.1201C25.9911 14.8789 27.2552 15.0027 28.4039 15.4759C29.5527 15.949 30.5345 16.7503 31.2253 17.7784C31.9161 18.8064 32.2848 20.0151 32.2848 21.2515C32.2849 22.0725 32.1224 22.8855 31.8064 23.644C31.4905 24.4025 31.0275 25.0917 30.4437 25.6722C29.8599 26.2527 29.1668 26.7132 28.404 27.0274C27.6413 27.3415 26.8237 27.5031 25.9981 27.503V27.503ZM21.5973 29.0657H22.4169C23.5395 29.5806 24.7611 29.8472 25.9973 29.8472C27.2336 29.8472 28.4552 29.5806 29.5778 29.0657H30.3989C32.1495 29.0661 33.8283 29.7578 35.0661 30.9888C36.304 32.2197 36.9996 33.8891 37 35.6299V37.6586C37 38.2796 36.7519 38.8751 36.3104 39.3142C35.8688 39.7533 35.2699 40 34.6454 40H17.3546C17.0454 40 16.7392 39.9394 16.4535 39.8218C16.1678 39.7041 15.9083 39.5316 15.6896 39.3142C15.471 39.0968 15.2976 38.8387 15.1792 38.5546C15.0609 38.2706 15 37.9661 15 37.6586V35.6269C15.0012 33.8871 15.6968 32.219 16.9339 30.9888C18.171 29.7586 19.8485 29.0669 21.5981 29.0657H21.5973Z" stroke="white" stroke-width="2"/>
</svg>
