<svg width="49" height="23" viewBox="0 0 49 23" fill="none" xmlns="http://www.w3.org/2000/svg">
<g filter="url(#filter0_d)">
<path d="M48 0H0V22H48V0Z" fill="#ADEFBA"/>
</g>
<path d="M13.24 15.12C15.39 15.12 16.91 13.47 16.91 11.5V11.48C16.91 9.51 15.41 7.88 13.26 7.88C11.11 7.88 9.59 9.53 9.59 11.5V11.52C9.59 13.49 11.09 15.12 13.24 15.12ZM13.26 13.99C11.87 13.99 10.88 12.86 10.88 11.5V11.48C10.88 10.12 11.85 9.01 13.24 9.01C14.63 9.01 15.62 10.14 15.62 11.5V11.52C15.62 12.88 14.65 13.99 13.26 13.99ZM18.3961 15H19.6261V12.75H21.0161C22.5561 12.75 23.8161 11.93 23.8161 10.36V10.34C23.8161 8.93 22.7861 8 21.1561 8H18.3961V15ZM19.6261 11.64V9.12H21.0561C21.9761 9.12 22.5661 9.55 22.5661 10.37V10.39C22.5661 11.12 21.9861 11.64 21.0561 11.64H19.6261ZM25.0758 15H30.3158V13.9H26.3058V12.02H29.8158V10.92H26.3058V9.1H30.2658V8H25.0758V15ZM31.775 15H32.985V10.02L36.845 15H37.875V8H36.665V12.84L32.915 8H31.775V15Z" fill="#20952F"/>
<defs>
<filter id="filter0_d" x="0" y="0" width="49" height="23" filterUnits="userSpaceOnUse" color-interpolation-filters="sRGB">
<feFlood flood-opacity="0" result="BackgroundImageFix"/>
<feColorMatrix in="SourceAlpha" type="matrix" values="0 0 0 0 0 0 0 0 0 0 0 0 0 0 0 0 0 0 127 0" result="hardAlpha"/>
<feOffset dx="1" dy="1"/>
<feColorMatrix type="matrix" values="0 0 0 0 0.0862745 0 0 0 0 0.584314 0 0 0 0 0.184314 0 0 0 1 0"/>
<feBlend mode="normal" in2="BackgroundImageFix" result="effect1_dropShadow"/>
<feBlend mode="normal" in="SourceGraphic" in2="effect1_dropShadow" result="shape"/>
</filter>
</defs>
</svg>
