<svg width="53" height="56" viewBox="0 0 53 56" fill="none" xmlns="http://www.w3.org/2000/svg">
<path d="M52.24 26.12C52.24 11.6943 40.5457 0 26.12 0C11.6943 0 0 11.6943 0 26.12V29.267C0 43.6927 11.6943 55.387 26.12 55.387C40.5457 55.387 52.24 43.6927 52.24 29.267V26.12Z" fill="#36FBD7"/>
<path d="M51.24 26.12C51.24 12.2466 39.9934 1 26.12 1C12.2466 1 1 12.2466 1 26.12V29.267C1 43.1404 12.2466 54.387 26.12 54.387C39.9934 54.387 51.24 43.1404 51.24 29.267V26.12Z" stroke="#36FBD7" stroke-width="2"/>
<path d="M19 28.9531H32.62" stroke="black" stroke-width="3" stroke-linecap="round" stroke-linejoin="round"/>
<path d="M25.81 22.1431L32.62 28.9531L25.81 35.7631" stroke="black" stroke-width="3" stroke-linecap="round" stroke-linejoin="round"/>
</svg>
