<svg width="15" height="25" viewBox="0 0 15 25" fill="none" xmlns="http://www.w3.org/2000/svg">
<path d="M10.4787 12.497L0.551704 3.04447C0.377182 2.87921 0.238677 2.68269 0.144163 2.46622C0.0496501 2.24974 0.000993738 2.0176 0.000993728 1.78313C0.000993717 1.54867 0.04965 1.31652 0.144163 1.10004C0.238677 0.883572 0.377182 0.687052 0.551703 0.521791C0.906078 0.190241 1.38284 0.00448984 1.87944 0.00448981C2.37605 0.00448979 2.85281 0.190241 3.20719 0.521791L14.4546 11.2306C14.7947 11.5558 14.9901 11.9934 15.0003 12.4524C15.0105 12.9114 14.8347 13.3565 14.5093 13.6951L3.21561 24.4802C3.04589 24.6605 2.83945 24.8061 2.60885 24.908C2.37825 25.0099 2.12831 25.0661 1.87423 25.073C1.62015 25.08 1.36724 25.0376 1.13087 24.9485C0.894513 24.8594 0.679643 24.7254 0.499334 24.5546C0.319025 24.3839 0.177045 24.18 0.0820296 23.9553C-0.0129859 23.7306 -0.0590506 23.4898 -0.053364 23.2477C-0.0476773 23.0055 0.0096416 22.7669 0.115108 22.5465C0.220575 22.3261 0.371984 22.1284 0.560127 21.9656L10.4787 12.497Z" fill="white"/>
</svg>
