<svg width="30" height="38" viewBox="0 0 30 38" fill="none" xmlns="http://www.w3.org/2000/svg">
<g clip-path="url(#clip0)">
<path d="M25.52 38.001H4.47805C3.29095 37.9991 2.15299 37.5142 1.31358 36.6524C0.474174 35.7906 0.00180234 34.6223 0 33.4035V19.0005C0 18.7354 0.102564 18.4812 0.285128 18.2938C0.467693 18.1063 0.715303 18.001 0.973489 18.001C1.23167 18.001 1.47928 18.1063 1.66185 18.2938C1.84441 18.4812 1.94698 18.7354 1.94698 19.0005V33.4015C1.94826 34.0903 2.21534 34.7505 2.68973 35.2375C3.16412 35.7246 3.80716 35.9988 4.47805 36.0001H25.52C26.1909 35.9988 26.8339 35.7246 27.3083 35.2375C27.7827 34.7505 28.0498 34.0903 28.0511 33.4015V19.0005C28.0511 18.7354 28.1536 18.4812 28.3362 18.2938C28.5188 18.1063 28.7664 18.001 29.0246 18.001C29.2827 18.001 29.5304 18.1063 29.7129 18.2938C29.8955 18.4812 29.9981 18.7354 29.9981 19.0005V33.4015C29.9968 34.6206 29.5246 35.7895 28.6852 36.6517C27.8457 37.5139 26.7074 37.9991 25.52 38.001Z" fill="#C6C6C6"/>
<path d="M22.0135 9.19491C21.7553 9.19485 21.5078 9.08952 21.3252 8.90207L14.9976 2.40566L8.66988 8.90207C8.48329 9.06093 8.24568 9.14261 8.00354 9.13112C7.76139 9.11963 7.53213 9.01581 7.3606 8.83996C7.18907 8.66411 7.08762 8.42888 7.07608 8.18029C7.06455 7.9317 7.14377 7.68764 7.29824 7.49585L14.3074 0.299827C14.4899 0.112459 14.7375 0.00720215 14.9956 0.00720215C15.2537 0.00720215 15.5013 0.112459 15.6839 0.299827L22.693 7.49585C22.8291 7.63562 22.9218 7.81369 22.9593 8.00753C22.9969 8.20138 22.9776 8.4023 22.9039 8.5849C22.8303 8.7675 22.7055 8.92358 22.5455 9.0334C22.3854 9.14322 22.1972 9.20186 22.0047 9.20191L22.0135 9.19491Z" fill="#C6C6C6"/>
<path d="M15.0005 25.4C14.7423 25.4 14.4947 25.2947 14.3121 25.1072C14.1296 24.9198 14.027 24.6656 14.027 24.4005V0.999448C14.027 0.734378 14.1296 0.480164 14.3121 0.292731C14.4947 0.105299 14.7423 0 15.0005 0C15.2587 0 15.5063 0.105299 15.6888 0.292731C15.8714 0.480164 15.974 0.734378 15.974 0.999448V24.4005C15.974 24.6656 15.8714 24.9198 15.6888 25.1072C15.5063 25.2947 15.2587 25.4 15.0005 25.4Z" fill="#C6C6C6"/>
</g>
<defs>
<clipPath id="clip0">
<rect width="30" height="38" fill="white"/>
</clipPath>
</defs>
</svg>
