<svg width="64" height="89" viewBox="0 0 64 89" fill="none" xmlns="http://www.w3.org/2000/svg">
<path d="M5.085 85.51C7.17 85.51 8.67 84.34 8.67 82.54V82.51C8.67 80.905 7.59 80.05 5.25 79.54C2.94 79.045 2.4 78.49 2.4 77.5V77.47C2.4 76.525 3.27 75.775 4.635 75.775C5.715 75.775 6.69 76.12 7.665 76.915L8.355 76C7.29 75.145 6.195 74.71 4.665 74.71C2.67 74.71 1.215 75.925 1.215 77.575V77.605C1.215 79.33 2.325 80.11 4.74 80.635C6.945 81.1 7.47 81.655 7.47 82.63V82.66C7.47 83.695 6.54 84.445 5.13 84.445C3.675 84.445 2.625 83.95 1.53 82.96L0.795 83.83C2.055 84.955 3.42 85.51 5.085 85.51ZM11.1847 85.36H12.3697V74.86H11.1847V85.36ZM20.32 85.54C22.09 85.54 23.56 84.805 24.535 83.935V79.75H20.2V80.815H23.395V83.425C22.675 84.01 21.565 84.475 20.365 84.475C17.815 84.475 16.21 82.615 16.21 80.11V80.08C16.21 77.74 17.875 75.775 20.2 75.775C21.685 75.775 22.585 76.27 23.395 76.975L24.16 76.075C23.11 75.19 22.015 74.68 20.245 74.68C17.095 74.68 14.98 77.23 14.98 80.11V80.14C14.98 83.14 17.02 85.54 20.32 85.54ZM27.2077 85.36H28.3627V76.75L35.1427 85.36H36.0877V74.86H34.9327V83.275L28.3177 74.86H27.2077V85.36ZM47.7553 85.525C50.3803 85.525 52.1353 83.935 52.1353 80.875V74.86H50.9503V80.965C50.9503 83.26 49.7203 84.43 47.7853 84.43C45.7753 84.43 44.5753 83.155 44.5753 80.89V74.86H43.3903V80.965C43.3903 83.935 45.1603 85.525 47.7553 85.525ZM54.9371 85.36H56.1221V81.655H58.6721C60.9071 81.655 62.7971 80.485 62.7971 78.22V78.19C62.7971 76.12 61.2371 74.86 58.8671 74.86H54.9371V85.36ZM56.1221 80.575V75.955H58.7771C60.4721 75.955 61.5971 76.735 61.5971 78.235V78.265C61.5971 79.645 60.4571 80.575 58.7171 80.575H56.1221Z" fill="white"/>
<path d="M57.24 26.12C57.24 12.2466 45.9934 1 32.12 1C18.2466 1 7 12.2466 7 26.12V29.267C7 43.1404 18.2466 54.387 32.12 54.387C45.9934 54.387 57.24 43.1404 57.24 29.267V26.12Z" stroke="white" stroke-width="2"/>
<line x1="32" y1="16" x2="32" y2="40" stroke="white" stroke-width="2"/>
<line x1="44" y1="28" x2="20" y2="28" stroke="white" stroke-width="2"/>
</svg>
