<svg width="36" height="40" viewBox="0 0 36 40" fill="none" xmlns="http://www.w3.org/2000/svg">
<path d="M17.5612 20.0046C15.6889 20.0046 13.8586 19.4473 12.3018 18.4032C10.7451 17.359 9.53169 15.875 8.81518 14.1387C8.09867 12.4024 7.9112 10.4918 8.27647 8.64849C8.64174 6.80523 9.54336 5.11208 10.8673 3.78316C12.1912 2.45424 13.878 1.54924 15.7144 1.18259C17.5507 0.81594 19.4542 1.00412 21.184 1.72332C22.9138 2.44253 24.3923 3.66046 25.4325 5.22311C26.4727 6.78575 27.0279 8.62292 27.0279 10.5023C27.0281 11.7502 26.7833 12.9859 26.3076 14.1388C25.8319 15.2918 25.1346 16.3394 24.2555 17.2218C23.3764 18.1042 22.3328 18.8041 21.1842 19.2816C20.0355 19.7591 18.8045 20.0047 17.5612 20.0046V20.0046ZM10.9345 22.3799H12.1685C13.859 23.1625 15.6985 23.5677 17.5601 23.5677C19.4217 23.5677 21.2612 23.1625 22.9517 22.3799H24.188C26.8241 22.3805 29.3521 23.4319 31.2161 25.3029C33.0801 27.1739 34.1276 29.7114 34.1282 32.3575V35.4411C34.1282 36.385 33.7547 37.2902 33.0897 37.9576C32.4248 38.625 31.523 39 30.5826 39H4.54557C4.07996 39 3.61891 38.9079 3.18874 38.7291C2.75857 38.5502 2.36771 38.2881 2.03847 37.9576C1.70924 37.6271 1.44807 37.2348 1.26989 36.803C1.09171 36.3712 1 35.9085 1 35.4411V32.3529C1.00182 29.7084 2.04919 27.1728 3.91208 25.3029C5.77497 23.433 8.30108 22.3817 10.9356 22.3799H10.9345Z" stroke="#919191" stroke-width="2"/>
</svg>
