<svg width="73" height="14" viewBox="0 0 73 14" fill="none" xmlns="http://www.w3.org/2000/svg">
<path d="M5.37596 1.4008L3.90596 4.3818L0.616963 4.8618C0.483958 4.8812 0.359022 4.93739 0.256259 5.02403C0.153496 5.11067 0.0769977 5.22431 0.0353988 5.35212C-0.00620006 5.47993 -0.0112428 5.61683 0.0208397 5.74735C0.0529222 5.87788 0.120852 5.99684 0.216963 6.09081L2.59696 8.4098L2.03396 11.6858C2.01121 11.8183 2.02599 11.9544 2.07662 12.0789C2.12725 12.2034 2.21171 12.3113 2.32045 12.3902C2.42919 12.4692 2.55787 12.5162 2.69192 12.5258C2.82597 12.5355 2.96004 12.5074 3.07896 12.4448L6.02196 10.9008L8.96396 12.4478C9.08292 12.51 9.21688 12.5378 9.35076 12.5279C9.48464 12.5181 9.61312 12.4711 9.72174 12.3922C9.83035 12.3133 9.91478 12.2057 9.96553 12.0814C10.0163 11.9571 10.0313 11.8212 10.009 11.6888L9.44596 8.41281L11.826 6.0938C11.9221 5.99984 11.99 5.88088 12.0221 5.75035C12.0542 5.61983 12.0491 5.48293 12.0075 5.35512C11.9659 5.22731 11.8894 5.11367 11.7867 5.02703C11.6839 4.94039 11.559 4.8842 11.426 4.8648L8.13896 4.3818L6.66796 1.4008C6.60831 1.28045 6.51622 1.17916 6.40208 1.10834C6.28794 1.03752 6.15629 1 6.02196 1C5.88764 1 5.75598 1.03752 5.64184 1.10834C5.5277 1.17916 5.43562 1.28045 5.37596 1.4008Z" fill="#919191"/>
<path d="M34.884 1.4008L33.414 4.3818L30.125 4.8618C29.992 4.8812 29.867 4.93739 29.7643 5.02403C29.6615 5.11067 29.585 5.22431 29.5434 5.35212C29.5018 5.47993 29.4968 5.61683 29.5288 5.74735C29.5609 5.87788 29.6288 5.99684 29.725 6.09081L32.105 8.4098L31.542 11.6858C31.5192 11.8183 31.534 11.9544 31.5846 12.0789C31.6352 12.2034 31.7197 12.3113 31.8284 12.3902C31.9372 12.4692 32.0659 12.5162 32.1999 12.5258C32.334 12.5355 32.468 12.5074 32.587 12.4448L35.53 10.9008L38.472 12.4478C38.5909 12.51 38.7249 12.5378 38.8588 12.5279C38.9926 12.5181 39.1211 12.4711 39.2297 12.3922C39.3383 12.3133 39.4228 12.2057 39.4735 12.0814C39.5243 11.9571 39.5393 11.8212 39.517 11.6888L38.954 8.41281L41.334 6.0938C41.4301 5.99984 41.498 5.88088 41.5301 5.75035C41.5622 5.61983 41.5571 5.48293 41.5155 5.35512C41.4739 5.22731 41.3974 5.11367 41.2947 5.02703C41.1919 4.94039 41.067 4.8842 40.934 4.8648L37.647 4.3818L36.176 1.4008C36.1163 1.28045 36.0242 1.17916 35.9101 1.10834C35.7959 1.03752 35.6643 1 35.53 1C35.3956 1 35.264 1.03752 35.1498 1.10834C35.0357 1.17916 34.9436 1.28045 34.884 1.4008Z" fill="#919191"/>
<path d="M20.508 1.4008L19.038 4.3818L15.749 4.8618C15.616 4.8812 15.491 4.93739 15.3883 5.02403C15.2855 5.11067 15.209 5.22431 15.1674 5.35212C15.1258 5.47993 15.1208 5.61683 15.1529 5.74735C15.1849 5.87788 15.2529 5.99684 15.349 6.09081L17.729 8.4098L17.166 11.6858C17.1432 11.8183 17.158 11.9544 17.2086 12.0789C17.2593 12.2034 17.3437 12.3113 17.4525 12.3902C17.5612 12.4692 17.6899 12.5162 17.8239 12.5258C17.958 12.5355 18.0921 12.5074 18.211 12.4448L21.154 10.9008L24.096 12.4478C24.2149 12.51 24.3489 12.5378 24.4828 12.5279C24.6167 12.5181 24.7451 12.4711 24.8538 12.3922C24.9624 12.3133 25.0468 12.2057 25.0975 12.0814C25.1483 11.9571 25.1633 11.8212 25.141 11.6888L24.578 8.41281L26.958 6.0938C27.0541 5.99984 27.122 5.88088 27.1541 5.75035C27.1862 5.61983 27.1811 5.48293 27.1395 5.35512C27.0979 5.22731 27.0214 5.11367 26.9187 5.02703C26.8159 4.94039 26.691 4.8842 26.558 4.8648L23.271 4.3818L21.8 1.4008C21.7403 1.28045 21.6482 1.17916 21.5341 1.10834C21.42 1.03752 21.2883 1 21.154 1C21.0197 1 20.888 1.03752 20.7739 1.10834C20.6597 1.17916 20.5676 1.28045 20.508 1.4008Z" fill="#919191"/>
<path d="M50.016 1.4008L48.546 4.3818L45.257 4.8618C45.124 4.8812 44.999 4.93739 44.8963 5.02403C44.7935 5.11067 44.717 5.22431 44.6754 5.35212C44.6338 5.47993 44.6288 5.61683 44.6609 5.74735C44.6929 5.87788 44.7609 5.99684 44.857 6.09081L47.237 8.4098L46.674 11.6858C46.6512 11.8183 46.666 11.9544 46.7166 12.0789C46.7673 12.2034 46.8517 12.3113 46.9605 12.3902C47.0692 12.4692 47.1979 12.5162 47.3319 12.5258C47.466 12.5355 47.6001 12.5074 47.719 12.4448L50.662 10.9008L53.604 12.4478C53.7229 12.51 53.8569 12.5378 53.9908 12.5279C54.1247 12.5181 54.2531 12.4711 54.3618 12.3922C54.4704 12.3133 54.5548 12.2057 54.6055 12.0814C54.6563 11.9571 54.6713 11.8212 54.649 11.6888L54.086 8.41281L56.466 6.0938C56.5621 5.99984 56.63 5.88088 56.6621 5.75035C56.6942 5.61983 56.6891 5.48293 56.6475 5.35512C56.6059 5.22731 56.5294 5.11367 56.4267 5.02703C56.3239 4.94039 56.199 4.8842 56.066 4.8648L52.779 4.3818L51.308 1.4008C51.2483 1.28045 51.1562 1.17916 51.0421 1.10834C50.928 1.03752 50.7963 1 50.662 1C50.5277 1 50.396 1.03752 50.2819 1.10834C50.1677 1.17916 50.0756 1.28045 50.016 1.4008Z" fill="#919191"/>
<path d="M64.7699 1.4008L63.2999 4.3818L60.0109 4.8618C59.8779 4.8812 59.753 4.93739 59.6502 5.02403C59.5475 5.11067 59.471 5.22431 59.4294 5.35212C59.3878 5.47993 59.3827 5.61683 59.4148 5.74735C59.4469 5.87788 59.5148 5.99684 59.6109 6.09081L61.9909 8.4098L61.4279 11.6858C61.4052 11.8183 61.42 11.9544 61.4706 12.0789C61.5212 12.2034 61.6057 12.3113 61.7144 12.3902C61.8232 12.4692 61.9518 12.5162 62.0859 12.5258C62.2199 12.5355 62.354 12.5074 62.4729 12.4448L65.4159 10.9008L68.3579 12.4478C68.4769 12.51 68.6109 12.5378 68.7447 12.5279C68.8786 12.5181 69.0071 12.4711 69.1157 12.3922C69.2243 12.3133 69.3088 12.2057 69.3595 12.0814C69.4103 11.9571 69.4253 11.8212 69.4029 11.6888L68.8399 8.41281L71.2199 6.0938C71.3161 5.99984 71.384 5.88088 71.4161 5.75035C71.4482 5.61983 71.4431 5.48293 71.4015 5.35512C71.3599 5.22731 71.2834 5.11367 71.1806 5.02703C71.0779 4.94039 70.9529 4.8842 70.8199 4.8648L67.5329 4.3818L66.0619 1.4008C66.0023 1.28045 65.9102 1.17916 65.7961 1.10834C65.6819 1.03752 65.5503 1 65.4159 1C65.2816 1 65.15 1.03752 65.0358 1.10834C64.9217 1.17916 64.8296 1.28045 64.7699 1.4008V1.4008Z" stroke="#919191" stroke-width="2"/>
</svg>
