<svg width="217" height="45" viewBox="0 0 217 45" fill="none" xmlns="http://www.w3.org/2000/svg">
<rect x="1" y="1" width="215" height="43" rx="21.5" stroke="white" stroke-width="2"/>
<path d="M77.9897 29.09H79.9337L85.1717 16.4H82.7777L78.9977 26.084L75.1997 16.4H72.7517L77.9897 29.09ZM88.0517 29H97.4837V27.02H90.2657V23.636H96.5837V21.656H90.2657V18.38H97.3937V16.4H88.0517V29ZM100.83 29H103.044V24.608H105.78H105.816L108.912 29H111.522L108.12 24.23C109.884 23.726 111.126 22.484 111.126 20.414V20.378C111.126 19.28 110.748 18.344 110.082 17.66C109.272 16.868 108.03 16.4 106.446 16.4H100.83V29ZM103.044 22.646V18.416H106.266C107.904 18.416 108.876 19.154 108.876 20.504V20.54C108.876 21.818 107.868 22.646 106.284 22.646H103.044ZM114.684 29H116.898V16.4H114.684V29ZM120.991 29H123.205V23.87H129.559V21.854H123.205V18.416H130.369V16.4H120.991V29ZM137.232 29H139.464V23.978L144.468 16.4H141.93L138.366 21.98L134.838 16.4H132.228L137.232 24.032V29Z" fill="white"/>
</svg>
