<svg width="123" height="18" viewBox="0 0 123 18" fill="none" xmlns="http://www.w3.org/2000/svg">
<g clip-path="url(#clip0)">
<path d="M14.088 13.186L10.8499 2.56702H8.68393L5.44589 13.186L2.35507 2.56702H9.15527e-05L4.20004 16.655H6.59995L9.77499 6.18402L12.929 16.655H15.3289L19.556 2.56702H17.18L14.088 13.186Z" fill="white"/>
<path d="M29.226 2.56799H26.976V16.656H29.226V2.56799Z" fill="white"/>
<path d="M41.1049 2.56702H38.8561V16.655H48.8019V14.616H41.1019L41.1049 2.56702Z" fill="white"/>
<path d="M62.0469 2.56799H57.126V16.656H62.0469C66.8409 16.656 69.8269 13.712 69.8269 9.612C69.8269 5.512 66.8409 2.56799 62.0469 2.56799ZM62.0469 14.617H59.3799V4.60803H62.051C65.478 4.60803 67.5601 6.69003 67.5601 9.60803C67.5601 12.526 65.4749 14.617 62.0469 14.617Z" fill="white"/>
<path d="M122.179 7.93298H101.679L105.707 0.955017L104.052 -0.000976562L99.4719 7.93201H78.188V9.84302H98.3669L94.656 16.27L96.311 17.226L100.573 9.84399H122.173L122.179 7.93298Z" fill="white"/>
</g>
<defs>
<clipPath id="clip0">
<rect width="122.178" height="17.226" fill="white"/>
</clipPath>
</defs>
</svg>
